<svg xmlns="http://www.w3.org/2000/svg" width="23.135" height="22.417" viewBox="0 0 23.135 22.417">
  <g id="temp1-updated" transform="translate(23280.756 13802.723)">
    <path id="Icon_zocial-email" data-name="Icon zocial-email" d="M.072,17.9V6.008q0-.021.067-.392L7.7,11.6.161,18.309A1.633,1.633,0,0,1,.072,17.9ZM1.1,19.113l7.608-6.749,2.945,2.208L14.6,12.365,22.2,19.113a1.149,1.149,0,0,1-.379.062H1.455a1.083,1.083,0,0,1-.357-.062ZM15.6,11.6,23.14,5.616a1.148,1.148,0,0,1,.067.392V17.9a1.472,1.472,0,0,1-.067.413Z" transform="translate(-23280.828 -13799.482)"/>
    <path id="Path_51" data-name="Path 51" d="M331.184,229.739l3.189-1.889.036,4.068Z" transform="translate(-23611.365 -14024.329)" stroke="#000" stroke-width="0.5"/>
    <path id="Path_52" data-name="Path 52" d="M.4,3.8,0,0,2.657,1.767.836,3.464Z" transform="translate(-23260.754 -13796.672) rotate(5)" stroke="#000" stroke-width="0.5"/>
    <path id="Subtraction_6" data-name="Subtraction 6" d="M7.729,16.417v0h0L-.526,9.923V0h17.6V9.841ZM3.055,8.935v.8H13.58v-.8Zm0-2.826v.8H13.582v-.8Zm-.03-2.826v.8H9.189v-.8Z" transform="translate(-23277.258 -13802.721)"/>
  </g>
</svg>
